<svg width="1024" height="1024" viewBox="0 0 1024 1024" fill="none" xmlns="http://www.w3.org/2000/svg">
<path d="M26 34C26 29.5817 29.5817 26 34 26H322C326.418 26 330 29.5817 330 34V322C330 326.418 326.418 330 322 330H34C29.5817 330 26 326.418 26 322V34Z" fill="white"/>
<path d="M360 34C360 29.5817 363.582 26 368 26H656C660.418 26 664 29.5817 664 34V322C664 326.418 660.418 330 656 330H368C363.582 330 360 326.418 360 322V34Z" fill="white"/>
<path d="M694 34C694 29.5817 697.582 26 702 26H990C994.418 26 998 29.5817 998 34V322C998 326.418 994.418 330 990 330H702C697.582 330 694 326.418 694 322V34Z" fill="white"/>
<path d="M26 368C26 363.582 29.5817 360 34 360H322C326.418 360 330 363.582 330 368V656C330 660.418 326.418 664 322 664H34C29.5817 664 26 660.418 26 656V368Z" fill="white"/>
<path d="M360 368C360 363.582 363.582 360 368 360H656C660.418 360 664 363.582 664 368V656C664 660.418 660.418 664 656 664H368C363.582 664 360 660.418 360 656V368Z" fill="white"/>
<path d="M694 368C694 363.582 697.582 360 702 360H990C994.418 360 998 363.582 998 368V656C998 660.418 994.418 664 990 664H702C697.582 664 694 660.418 694 656V368Z" fill="white"/>
<path d="M26 702C26 697.582 29.5817 694 34 694H322C326.418 694 330 697.582 330 702V990C330 994.418 326.418 998 322 998H34C29.5817 998 26 994.418 26 990V702Z" fill="white"/>
<path d="M360 702C360 697.582 363.582 694 368 694H656C660.418 694 664 697.582 664 702V990C664 994.418 660.418 998 656 998H368C363.582 998 360 994.418 360 990V702Z" fill="white"/>
</svg>
